# xmcd
# 
# Track frame offsets:
#     150
#     14601
#     27896
#     41788
#     55134
#     67699
#     82637
#     97153
#     110840
#     122807
#     136745
#     150370
#     163430
#     175080
#     188848
#     201449
#     215099
#     226948
#     240103
#     252728
#     265546
#     279404
#     293788
#     307219
# 
# Disc length: 4265
# 
# Revision: 0
# Processed by: cddbd v1.5.2PL0 Copyright (c) Steve Scherf et al.
# Submitted via: fre:ac v1.0.31
# 
DISCID=5610a718
DTITLE=Alberta Hunter - Collection 1921-40 [CD2)
DYEAR=2017
DGENRE=Blues
TTITLE0=Aggravatin' Papa (Don't You Try To Two-Time Me)
TTITLE1=I'm Going Away
TTITLE2=Loveless Love
TTITLE3=You Can Take My Man But You Can't Keep Him Long
TTITLE4=Bring It With You When You Come
TTITLE5=Mistreated Blues
TTITLE6=Michigan Water Blues
TTITLE7=Down South Blues
TTITLE8=Stingaree Blues
TTITLE9=You Can't Do What My Last Man Did
TTITLE10=Experience Blues
TTITLE11=Sad 'n' Lonely Blues
TTITLE12=Miss Anna Brown
TTITLE13=Maybe Someday
TTITLE14=Old Fashioned Love
TTITLE15=If The Rest Of The World Don't Want You
TTITLE16=Everybody Loves My Baby
TTITLE17=Texas Moaner Blues
TTITLE18=Nobody Knows The Way I Feel This Morning
TTITLE19=Early Every Morn'
TTITLE20=Cake Walkin' Babies From Home
TTITLE21=Your Jelly Roll Is Good
TTITLE22=Take That Thing Away
TTITLE23=Everybody Does It Now
EXTD=
EXTT0=
EXTT1=
EXTT2=
EXTT3=
EXTT4=
EXTT5=
EXTT6=
EXTT7=
EXTT8=
EXTT9=
EXTT10=
EXTT11=
EXTT12=
EXTT13=
EXTT14=
EXTT15=
EXTT16=
EXTT17=
EXTT18=
EXTT19=
EXTT20=
EXTT21=
EXTT22=
EXTT23=
PLAYORDER=
